<?xml version="1.0" encoding="UTF-8"?>
<svg width="75px" height="240px" viewBox="0 0 75 240" version="1.1" xmlns="http://www.w3.org/2000/svg" xmlns:xlink="http://www.w3.org/1999/xlink">
    <!-- Generator: Sketch 58 (84663) - https://sketch.com -->
    <title>Fill 1</title>
    <desc>Created with Sketch.</desc>
    <g id="Page-1" stroke="none" stroke-width="1" fill="none" fill-rule="evenodd">
        <polygon id="Fill-1" fill="#000000" points="0 240 75 240 75 0 0 0"></polygon>
        <g id="Group-5" transform="translate(9.000000, 16.000000)" fill="#FFFFFF">
            <path d="M46.5171477,25.8210939 L40.9858311,2.42467786 C40.6855334,1.15287183 39.5577487,0.2646 38.2447805,0.2646 L36.1034911,0.2646 L16.5799705,0.2646 L16.264658,0.2646 C14.8766153,0.2646 13.7446599,1.25332127 13.5719887,2.6156148 L10.6148906,26.0112006 C10.5131231,26.8189469 10.7725469,27.6408059 11.3280976,28.2675771 C11.8903216,28.9009897 12.6894472,29.2646 13.5219391,29.2646 L17.2105957,29.2646 L16.3288883,25.6085727 L14.3686117,25.6085727 L15.9877168,12.795044 L19.3710707,27.1045221 C19.6722026,28.3763282 20.7991531,29.2646 22.1121213,29.2646 L43.7769313,29.2646 C44.6419554,29.2646 45.4460859,28.8777452 45.9832851,28.2028246 C46.5213185,27.5270739 46.7156778,26.6595561 46.5171477,25.8210939 L46.5171477,25.8210939 Z M22.7911278,25.6085727 L17.6635447,3.92062725 L36.1034911,3.92062725 L37.5657741,3.92062725 L42.6933571,25.6085727 L22.7911278,25.6085727 Z" id="Fill-2"></path>
            <path d="M29.0472158,17.3131085 C29.0463835,17.3139449 29.0463835,17.3156176 29.0455512,17.3164539 C29.0438866,17.3164539 29.0405575,17.3172903 29.0388929,17.3172903 L29.036396,17.3147812 L25.8195837,13.4299192 L23.5932,15.3476778 L26.8100123,19.2325398 C27.3759715,19.8957681 28.1832957,20.2646 29.0338991,20.2646 C29.1837119,20.2646 29.3343569,20.2528911 29.4858342,20.2294732 C30.4962379,20.0747478 31.3393506,19.4182103 31.7421804,18.4739672 L35.5932,9.42545866 L32.8982354,8.2646 L29.0472158,17.3131085 Z" id="Fill-4"></path>
            <path d="M4.52755869,38.9041484 C5.62588333,38.9041484 6.41275507,38.7607398 6.41275507,37.7240319 C6.41275507,36.6721018 5.62588333,36.4654012 4.52755869,36.4654012 L3.31388113,36.4654012 L3.31388113,38.9041484 L4.52755869,38.9041484 Z M6.60967899,45.2646 L4.72448261,41.1041484 L3.31388113,41.1041484 L3.31388113,45.2646 L0.5932,45.2646 L0.5932,34.2646 L4.85549058,34.2646 C7.46246668,34.2646 9.13426015,35.4286932 9.13426015,37.7240319 C9.13426015,39.158919 8.47839637,40.1315337 7.33063477,40.6410749 L9.5932,45.2646 L6.60967899,45.2646 Z" id="Fill-6"></path>
            <path d="M13.1099504,40.6911417 L15.0932,40.6911417 C15.0429487,39.7394695 14.692865,39.4445729 14.1099504,39.4445729 C13.4600342,39.4445729 13.1769521,39.91171 13.1099504,40.6911417 L13.1099504,40.6911417 Z M17.4591966,44.7761987 C16.8762821,45.832259 15.8762821,46.2646 14.3595317,46.2646 C11.7272034,46.2646 10.5932,44.4987001 10.5932,42.3526534 L10.5932,41.1417506 C10.5932,38.4581047 11.9265333,37.2646 14.0932,37.2646 C16.5094479,37.2646 17.5932,38.7008072 17.5932,41.4009812 L17.5932,42.4222455 L13.0923625,42.4222455 C13.1267008,43.4087137 13.3595317,44.0837572 14.3762821,44.0837572 C15.1593642,44.0837572 15.3260308,43.8410547 15.6258633,43.4435097 L17.4591966,44.7761987 Z" id="Fill-8"></path>
            <path d="M23.5934433,40.0854176 C23.2706547,39.7044376 22.9325357,39.4800248 22.1532438,39.4800248 C21.7972394,39.4800248 21.3560665,39.5487403 21.3560665,39.9297203 C21.3560665,40.2237186 21.6269024,40.3620195 22.4061943,40.5177168 C24.7278879,40.9682822 25.5932,41.9198624 25.5932,43.5116281 C25.5932,45.2425646 24.3897689,46.2646 22.2034932,46.2646 C20.4754241,46.2646 19.3563099,45.88362 18.5932,44.8276618 L20.5588893,43.3733272 C20.8476105,43.7717035 21.1874329,44.0491752 22.1532438,44.0491752 C22.7119492,44.0491752 23.0500682,43.8926081 23.0500682,43.5812135 C23.0500682,43.2524226 22.7621987,43.1315179 21.9667248,42.9584243 C20.0512849,42.5261251 18.8146381,41.7293724 18.8146381,40.0332286 C18.8146381,38.3022921 20.0342512,37.2646 22.2034932,37.2646 C23.5934433,37.2646 24.8139081,37.593391 25.4731124,38.7006684 L23.5934433,40.0854176 Z" id="Fill-10"></path>
            <path d="M29.1099504,40.6911417 L31.0932,40.6911417 C31.0429487,39.7394695 30.692865,39.4445729 30.1099504,39.4445729 C29.4600342,39.4445729 29.1769521,39.91171 29.1099504,40.6911417 L29.1099504,40.6911417 Z M33.4591966,44.7761987 C32.8762821,45.832259 31.8762821,46.2646 30.3595317,46.2646 C27.7272034,46.2646 26.5932,44.4987001 26.5932,42.3526534 L26.5932,41.1417506 C26.5932,38.4581047 27.9265333,37.2646 30.0932,37.2646 C32.5094479,37.2646 33.5932,38.7008072 33.5932,41.4009812 L33.5932,42.4222455 L29.0932,42.4222455 C29.1267008,43.4087137 29.3595317,44.0837572 30.3762821,44.0837572 C31.1593642,44.0837572 31.3260308,43.8410547 31.6258633,43.4435097 L33.4591966,44.7761987 Z" id="Fill-12"></path>
            <path d="M38.8334632,39.8369295 C38.6921474,39.6020064 38.4726737,39.2724833 38.0171474,39.2724833 C37.3413579,39.2724833 36.9482,39.7431179 36.9482,40.7939654 L36.9482,45.2646 L34.5932,45.2646 L34.5932,37.4214782 L36.8858316,37.4214782 L36.8858316,38.0174577 C37.1218842,37.719468 37.6397789,37.2646 38.5350421,37.2646 C39.4310947,37.2646 40.1376737,37.7037013 40.5932,38.5819039 L38.8334632,39.8369295 Z" id="Fill-14"></path>
            <polygon id="Fill-16" points="48.5932 37.2646 45.7140447 45.2646 43.5349286 45.2646 40.5932 37.2646 43.1626173 37.2646 44.5939822 41.8720982 46.0261292 37.2646"></polygon>
            <path d="M52.1102516,40.6911417 L54.0929008,40.6911417 C54.0434812,39.7394695 53.6933556,39.4445729 53.1095336,39.4445729 C52.458702,39.4445729 52.1764236,39.91171 52.1102516,40.6911417 L52.1102516,40.6911417 Z M56.4591806,44.7761987 C55.8761963,45.832259 54.8769143,46.2646 53.3591447,46.2646 C50.7265014,46.2646 49.5932,44.4987001 49.5932,42.3526534 L49.5932,41.1417506 C49.5932,38.4581047 50.9258553,37.2646 53.0936188,37.2646 C55.5101558,37.2646 56.5932,38.7008072 56.5932,41.4009812 L56.5932,42.4222455 L52.0926615,42.4222455 C52.127004,43.4087137 52.3598627,44.0837572 53.3767348,44.0837572 C54.1590729,44.0837572 54.3265972,43.8410547 54.6264655,43.4435097 L56.4591806,44.7761987 Z" id="Fill-18"></path>
        </g>
        <path d="M31.92,78.42 C32.84,79.94 34.18,80.62 36.22,80.62 L36.54256,80.61568 C36.6248,80.6128 36.716,80.608 36.82,80.6 L34.19875,82.2678125 C34.05,82.365 33.93,82.445 33.82,82.52 L33.94,82.76 C36.56,81.7 38.26,81.18 39.96,80.9 L40.6318519,80.797037 C40.8712593,80.7567407 40.958963,80.7316148 41.0800415,80.6822163 L41.18,80.64 C41.54,80.52 41.7,80.3 41.7,79.98 C41.7,79.24 40.66,78.36 39.78,78.36 C39.675,78.36 39.55875,78.37125 39.448125,78.4021875 L38.86896,78.61312 C38.3192,78.8064 38.028,78.864 37.34,78.96 C36.66,79.06 35.72,79.14 35.12,79.14 C33.72,79.14 32.94,78.92 32.08,78.28 L31.92,78.42 Z M31.38,85.86 C31.02,86.78 30.86,87.52 30.86,88.26 C30.86,89.68 31.52,90.9 32.66,91.64 C33.72,92.32 35.4,92.66 37.72,92.66 C39.88,92.66 41.68,92.46 42.54,92.12 C42.98,91.94 43.24,91.6 43.24,91.22 C43.24,90.5 42.16,89.66 41.22,89.66 C41.06,89.66 40.8744,89.6984 40.65296,89.7752 L40.48,89.84 C39.24,90.34 38.1,90.52 36.42,90.52 C33.1144444,90.52 31.642608,89.4991667 31.5633899,87.1450536 L31.56,86.94 C31.56,86.66 31.58,86.42 31.64,85.92 L31.38,85.86 Z M43.6,75.32 C44.5272727,75.9563636 45.1900826,76.5761983 45.8138242,77.4199249 L46,77.68 C46.3,78.1 46.44,78.22 46.66,78.22 C47.02,78.22 47.26,77.9 47.26,77.42 C47.26,76.86 46.9,76.4 46.1,75.88 C45.52,75.5 44.78,75.22 43.76,75 L43.6,75.32 Z M41.46,76.82 C42.44,77.56 43.22,78.44 43.82,79.48 C44.08,79.94 44.24,80.06 44.5,80.06 C44.88,80.06 45.12,79.74 45.12,79.28 C45.12,78.64 44.7,78.06 43.78,77.44 C43.2,77.04 42.58,76.78 41.64,76.48 L41.46,76.82 Z M32.4,98.98 C31.56,98.98 31.06,98.94 30.32,98.8 L30.46,99.54 C31.12,99.44 31.7,99.4 32.5,99.4 L40.42,99.4 C39.56,100.64 38.96,101.38 38.16,102.24 C36.9,101.52 35.62,101.02 33.76,100.52 L33.6,100.7 C35.1493333,101.857333 36.176,102.892711 36.9726933,104.098827 L37.33692,104.66528 C37.4548,104.8414 37.508,104.896 37.62,104.98 L30.58,104.98 C29.8,104.98 29.24,104.92 28.46,104.78 L28.6,105.54 C29.14,105.46 29.9,105.4 30.54,105.4 L36.12,105.4 L36.12,113.08 C36.12,113.36 36.04,113.44 35.74,113.46 L34.6021875,113.428437 C33.5925,113.39375 32.85,113.345 31.32,113.24 L31.3,113.54 L32.59625,113.840625 C33.5808333,114.076146 33.9532986,114.196267 34.2822801,114.385796 L34.34,114.42 C34.772,114.672 35.0258,115.0212 35.11598,115.52592 L35.14,115.7 C35.18,116 35.22,116.04 35.44,116.04 C35.72,116.04 36.24,115.96 36.7,115.84 C38.06,115.48 38.5,114.98 38.5,113.68 L38.483125,113.542187 C38.48125,113.52125 38.48,113.5 38.48,113.48 L38.44,108.66 L38.44,108.66 L38.44,105.4 L42.88,105.4 C42,106.88 41.24,107.92 40.14,109.14 L40.32,109.36 C42.16,108.42 43.5,107.56 45.34,106.18 L45.6895703,106.169453 C46.4303125,106.137187 46.66,106.0475 46.66,105.82 C46.66,105.72 46.56,105.6 46.36,105.4 L45.597037,104.761481 C45.16,104.404444 44.8,104.133333 44.12,103.64 L43.6592593,104.102963 C43.4,104.366667 43.2,104.58 42.84,104.98 L38.52,104.98 C39.02,104.64 39.26,104.2 39.26,103.64 C39.26,103.22 39.12,102.98 38.72,102.62 C40.42,101.82 41.62,101.14 43.08,100.14 L43.74,100.14 C44.1,100.14 44.34,100.04 44.34,99.88 C44.34,99.76 44.24,99.64 44.02,99.44 L43.5971296,99.0917593 C42.9605556,98.5727778 42.6133333,98.32 41.78,97.72 L41.1769822,98.2832922 C40.9688889,98.4812346 40.78,98.6688889 40.48,98.98 L32.4,98.98 Z M31.38,129.28 L31.38,131.34 L31.0798452,131.24589 C30.5485207,131.08497 30.0876923,130.976923 29.14,130.74 L29.14,131.18 C29.14,132.8 28.66,135.4 28,137.28 L28.2,137.4 C29.4,135.88 30.08,134.58 31,131.98 L31.38,131.9 L31.38,131.9 L31.3761735,133.222757 C31.3644388,133.802577 31.3257143,135.335714 31.26,137.8 C31.26,138.12 31.4,138.2 31.96,138.2 C32.72,138.2 33.12,138.12 33.24,137.94 C33.28,137.88 33.3,137.8 33.3,137.62 L33.2608984,133.380352 L33.2608984,133.380352 L33.26,128.76 L33.5672,128.67808 C33.7208,128.632 33.932,128.56 34.46,128.38 L34.56336,128.83216 C34.57824,128.90144 34.59216,128.96896 34.60544,129.03664 L34.68,129.46 C34.78,130.04 34.92,130.26 35.18,130.26 C35.8,130.26 36.44,129.54 36.44,128.82 C36.44,128.42 36.32,128.18 35.9,127.72 C37.12,126.6 37.7,125.86 38.76,124.08 L43.8,124.08 L43.81568,124.37888 C43.82,124.5104 43.82,124.616 43.82,124.7 C43.82,128 43.5,132.06 43.08,134 L42.99902,134.35902 C42.7634,135.3456 42.578,135.54 42.02,135.54 L41.5422121,135.534566 C40.8613609,135.517959 40.04,135.457692 37.94,135.28 L37.92,135.54 L39.1175836,135.898728 C40.0028355,136.172136 40.2695652,136.287826 40.58,136.48 C40.9711111,136.764444 41.2041975,137.112099 41.2652126,137.565103 L41.28,137.74 C41.3,138.02 41.36,138.1 41.58,138.1 C41.7,138.1 41.9,138.08 42.14,138.04 C43.02,137.92 43.6,137.68 44.06,137.28 C44.7,136.74 45,135.98 45.34,134.02 L45.4650983,133.262891 C45.723033,131.597981 45.8106383,130.133191 46.02,124.62 C46.52,124.38 46.7,124.22 46.7,124.06 C46.7,123.96 46.64,123.86 46.46,123.7 L45.76688,123.1688 C45.4712,122.948 45.2,122.756 44.72,122.42 L44.0198047,123.172734 C43.895,123.308437 43.76,123.4575 43.58,123.66 L39,123.66 L39.3030587,123.083623 C39.6138462,122.479527 39.86,121.944615 40.26,120.96 C40.84,120.9 41.12,120.78 41.12,120.56 C41.12,120.376667 40.8422222,120.248889 39.9973148,120.0725 L38.1013717,119.699918 C38.0293827,119.686667 37.9555556,119.673333 37.88,119.66 C37.8,121.06 37.5,122.56 36.98,124.26 L36.8111698,124.786627 C36.5100592,125.693964 36.2353846,126.329231 35.66,127.48 C34.98,126.84 34.54,126.52 33.6,125.92 L33.44,126.08 C33.92,126.82 34.06,127.08 34.28,127.76 L33.963965,127.794227 C33.2677551,127.862449 32.2,127.928571 31,127.98 C32.88,126.5 33.88,125.52 35.5,123.58 C36.18,123.54 36.4,123.46 36.4,123.24 C36.4,123.08 36.1,122.92 35.14,122.56 L34.0117969,122.120586 C33.943125,122.094375 33.8725,122.0675 33.8,122.04 C33.46,122.96 32.84,124.14 31.94,125.56 L31.6790741,125.967222 C31.255,126.614444 30.8633333,127.136667 30.18,128.02 L29.9304,128.03568 C29.8248,128.04 29.748,128.04 29.7,128.04 L29.0745953,128.036488 C28.8434568,128.032099 28.6088889,128.022222 28.22,128 L28.59386,129.58976 C28.7998,130.4306 28.846,130.46 29,130.46 C29.16,130.46 29.26,130.28 29.34,129.82 L30.3891397,129.556759 C30.6273373,129.493018 30.8907692,129.418462 31.38,129.28 Z M28.3,122.68 C29.1914286,123.664286 29.5310204,124.200204 29.8792347,125.200503 L29.96,125.44 C30.22,126.24 30.32,126.38 30.62,126.38 C31.2,126.38 31.74,125.68 31.74,124.92 C31.74,124.32 31.54,124.04 30.64,123.5 L30.75774,123.41714 C31.1586,123.1178 31.992,122.36 33.36,121.1 L33.6512153,121.070523 C34.1281657,121.012544 34.3,120.929231 34.3,120.76 C34.3,120.5 33.8,120.32 31.22,119.64 C31.06,120.74 30.76,121.74 30.12,123.22 L29.7581893,123.042936 C29.3698765,122.858765 29.0622222,122.737778 28.44,122.52 L28.3,122.68 Z M33.54,130.64 C34.12,131.76 34.38,132.84 34.52,134.46 L34.5743457,135.229658 C34.5914844,135.410625 34.60625,135.45 34.64,135.54 C34.72,135.72 34.84,135.82 35.02,135.82 C35.62,135.82 36.32,134.82 36.32,133.98 C36.32,133.36 35.96,132.58 35.36,131.94 C34.9,131.44 34.54,131.14 33.66,130.5 L33.54,130.64 Z M37.78,126.6 C38.38,127.6 38.64,128.14 38.9,128.88 C39.12,129.54 39.38,130.6 39.48,131.26 C39.56,131.86 39.72,132.1 40.04,132.1 C40.78,132.1 41.54,131.12 41.54,130.16 C41.54,129.06 40.48,127.96 37.94,126.44 L37.78,126.6 Z M34.16,150.72 L33.94,150.66 L33.467994,151.606897 C33.3060856,151.93432 33.1700977,152.21441 32.99429,152.584282 L32.3263177,154.006445 C32.1427219,154.388639 32.0092308,154.646154 31.8,155.04 C31.64,154.44 31.58,153.88 31.58,153.12 C31.58,151.72 31.92,150 32.44,148.72 C32.6,148.336 32.7984,147.9392 33.0352,147.50912 L33.22,147.18 C33.52,146.66 33.58,146.48 33.58,146.14 C33.58,145.58 33.18,144.8 32.5,144.04 C31.88,143.34 31.38,143.02 30.72,142.88 C31.2,143.68 31.34,144.16 31.34,144.84 L31.3326172,145.090928 C31.3097656,145.466328 31.2275,145.9325 31,146.94 L30.762711,148.070872 C30.2588723,150.535715 30.0948506,151.852404 30.0809805,153.46714 L30.08,153.7 C30.08,155.36 30.36,157 30.78,157.94 C31.1,158.64 31.5,158.98 31.98,158.98 C32.54,158.98 32.94,158.54 32.94,157.94 C32.94,157.8 32.92,157.6 32.9,157.4 L32.8659259,156.911111 C32.8622222,156.848889 32.86,156.793333 32.86,156.74 C32.86,156.15875 33.0709375,154.927109 33.4268945,153.539463 L34.16,150.72 Z M35.4,147.34 C35.74,147.86 36.16,148.32 36.66,148.68 C37.28,149.14 38.04,149.36 39.06,149.36 C39.46,149.36 39.9,149.32 40.46,149.24 L40.506184,151.319633 C40.5259534,152.496104 40.54,153.677778 40.54,153.82 L39.8940741,153.785926 C39.8022222,153.782222 39.7133333,153.78 39.62,153.78 C37.2,153.78 35.56,154.86 35.56,156.44 C35.56,157.86 36.88,158.8 38.86,158.8 C41.08,158.8 42.4,157.86 42.4,156.32 L42.3975,156.2125 C42.395,156.17 42.39,156.12 42.38,156.06 C42.88,156.326667 43.3383333,156.662778 43.7434259,157.045185 L44.4349794,157.732346 C44.8555556,158.143704 44.9333333,158.18 45.12,158.18 C45.54,158.18 45.82,157.7 45.82,156.98 C45.82,156.3 45.54,155.76 44.96,155.34 C44.32,154.84 43.52,154.48 42.34,154.14 C42.16,152.76 42.06,151.38 42.06,149.76 L42.06,149 L42.6113164,148.875852 C44.8168999,148.359671 45.88,147.855556 45.88,147.3 C45.88,147.12 45.8,146.92 45.68,146.8 C45.4,146.52 44.84,146.32 44.42,146.32 C44.27,146.32 44.1755556,146.347778 44.0325,146.44963 L43.94,146.52 C43.34,146.98 43.06,147.12 42.16,147.4 C42.26,146.14 42.34,145.76 42.64,145.12 L42.73875,144.89 C42.8175,144.695 42.84,144.59 42.84,144.44 C42.84,144.08 42.58,143.78 42.06,143.56 C41.42,143.26 40.7,143.12 39.94,143.12 C39.3,143.12 39,143.22 38.62,143.54 C39.48,143.62 40.02,143.9 40.22,144.42 L40.2524854,144.505117 C40.3856122,144.892653 40.4214286,145.558571 40.44,147.88 C39.68,148.06 38.9,148.16 38.12,148.16 C37.08,148.16 36.44,147.92 35.56,147.2 L35.4,147.34 Z M40.2437109,155.317148 L40.44,155.38 C40.4533333,155.38 40.4577778,155.388889 40.4592593,155.400741 L40.46,155.42 C40.46,155.56 40.44,155.9 40.42,156.04 C40.36,156.4 40.24,156.7 40.02,156.9 C39.68,157.28 38.94,157.5 38.12,157.5 C36.96,157.5 36.2,157.06 36.2,156.42 C36.2,155.62 37.14,155.12 38.64,155.12 C39.2875,155.12 39.781875,155.18125 40.2437109,155.317148 L40.2437109,155.317148 Z M32.44,166.02 C32.96,166.86 33.4,167.3 34.16,167.68 C34.84,168.02 35.78,168.22 36.74,168.22 L37.34,168.22 L36.1044444,168.988889 C35.3355556,169.473333 34.7,169.886667 34.34,170.14 L34.46,170.36 L35.1651157,170.088889 C37.5317477,169.187639 38.86989,168.776389 40.2782147,168.533576 L41.3058548,168.371076 C41.4809778,168.338222 41.5506667,168.313333 41.7,168.26 C42.04,168.12 42.22,167.9 42.22,167.6 C42.22,166.86 41.18,165.96 40.3,165.96 C40.2,165.96 39.96,166 39.86,166.04 L39.2749477,166.251816 C39.0520437,166.32954 38.9091033,166.371543 38.7360127,166.407319 L38.44,166.46 C37.54,166.64 36.44,166.74 35.68,166.74 C34.24,166.74 33.48,166.52 32.6,165.9 L32.44,166.02 Z M31.9,173.46 C31.54,174.38 31.38,175.12 31.38,175.88 C31.38,177.3 32.02,178.5 33.18,179.24 C34.24,179.92 35.9,180.26 38.26,180.26 C40.4,180.26 42.2,180.06 43.06,179.72 C43.5,179.54 43.76,179.22 43.76,178.84 C43.76,178.1 42.7,177.28 41.72,177.28 C41.5,177.28 41.34,177.32 41,177.46 C39.72,177.94 38.64,178.12 36.94,178.12 C33.6124324,178.12 32.1592841,177.116523 32.0831662,174.722711 L32.08,174.52 C32.08,174.26 32.1,174.02 32.16,173.54 L31.9,173.46 Z M29.22,190.02 C30.12,191.7 31.16,192.38 32.88,192.38 L33.1230321,192.376268 C33.202449,192.373469 33.3028571,192.368571 33.44,192.36 L33.3546283,192.735321 C32.9690816,194.475918 32.4,197.598571 32.4,198.1 C32.4,199 33.32,200.08 34.06,200.08 C34.34,200.08 34.64,199.92 34.74,199.7 C35.02,199.16 35.18,198.94 35.74,198.32 C36.9,197.04 38.46,196.26 39.8,196.26 C41.14,196.26 41.94,197.02 41.94,198.28 C41.94,199.52 41.24,200.64 39.92,201.48 C38.66,202.28 36.92,202.86 34.48,203.26 L34.48,203.48 L34.7777778,203.494074 C34.96,203.5 35.1066667,203.5 35.2,203.5 C36.22,203.5 37.34,203.42 38.3,203.3 C40.08,203.06 41.18,202.72 42.22,202.12 C43.5,201.36 44.3,200.08 44.3,198.76 C44.3,196.78 42.6,195.44 40.1,195.44 C39.2466667,195.44 38.3459259,195.582222 37.3556379,195.89476 L36.98,196.02 C36.16,196.3 35.7,196.5 34.32,197.2 C34.32,195.8 34.58,193.96 35.02,192.32 C36.86,192.04 38.56,191.62 39.74,191.1 C40.6,190.74 41,190.38 41,190 C41,189.76 40.88,189.54 40.66,189.4 C40.4,189.24 39.82,189.08 39.46,189.08 C39.08,189.08 38.94,189.12 38.64,189.38 C37.9,190 36.92,190.42 35.54,190.72 C35.988,189.562667 36.2792,188.962844 36.6249896,188.514015 L36.7,188.42 C37.06,187.98 37.1,187.88 37.1,187.62 C37.1,186.84 35.72,186.2 34,186.2 C33.34,186.2 33.06,186.28 32.64,186.64 C33.8,186.68 34.28,187.06 34.28,187.86 L34.2771464,187.990103 C34.2567108,188.465369 34.1217391,189.17913 33.72,191.06 L33.3147325,191.115473 C32.8918519,191.167901 32.6222222,191.18 32.28,191.18 C31.04,191.18 30.36,190.88 29.44,189.9 L29.22,190.02 Z M34.4,207.98 L34.6,207.88 C35.18,208.68 35.74,209.1 36.72,209.44 C37.2366667,209.623333 37.7394444,209.751111 38.2630556,209.811759 L38.58,209.84 C39.32,209.9 39.6,210.04 40,210.48 C40.36,210.86 40.56,211.32 40.56,211.72 C40.56,212.2 40.22,212.5 39.7,212.5 L39.5723793,212.493458 C39.4404444,212.479378 39.2253333,212.437333 38.58,212.32 L38.4134694,212.303324 C38.2502041,212.290204 38.0257143,212.28 37.74,212.28 C36.5,212.28 35.08,212.48 33.98,212.8 C33.44,212.96 33.12,213.24 33.12,213.54 C33.12,213.76 33.2,213.98 33.52,214.58 C33.6,214.74 33.66,215.06 33.66,215.38 L33.65625,215.511562 C33.64875,215.67 33.63,215.91 33.6,216.24 L33.4908325,217.873495 C33.4519967,218.512526 33.425691,219.033841 33.4208182,219.28609 L33.42,219.54 L33.42,219.54 C35.94,217.86 37.94,217.1 39.76,217.1 C42.34,217.1 44.08,218.52 44.08,220.64 C44.08,221.96 43.44,223.08 42.26,223.92 C40.52,225.12 38.06,225.7 34.62,225.72 L34.56,225.48 C36.94,225.04 38.42,224.46 39.76,223.48 C41.08,222.52 41.68,221.48 41.68,220.2 C41.68,218.8 40.82,217.94 39.42,217.94 C38.24,217.94 37.04,218.48 35.88,219.54 C35.2755556,220.091111 34.7185185,220.768642 34.3914952,221.319753 L34.0870782,221.876982 C34.028642,221.975062 33.9866667,222.024444 33.92,222.08 C33.76,222.24 33.56,222.32 33.36,222.32 C32.88,222.32 32.36,221.96 31.96,221.36 C31.68,220.92 31.5,220.46 31.5,220.16 L31.5025,220.069687 C31.51,219.9825 31.54,219.87 31.66,219.42 L31.8202554,218.458062 C31.8383471,218.343802 31.8581818,218.218182 31.88,218.08 L32.0533333,216.826667 L32.0533333,216.826667 L32.248125,215.574063 C32.3460938,214.921797 32.3920703,214.546035 32.3990527,214.349292 L32.3975,214.2125 C32.395,214.175 32.39,214.13 32.38,214.08 L32.38,213.88 L32.38,213.88 C32.38,213.16 32.62,212.8 33.32,212.42 L33.481875,212.338789 C33.7615625,212.204609 34.10375,212.071406 34.70375,211.865937 L36.96,211.1 L36.96,211.1 C35.56,210.34 34.86,209.5 34.4,207.98 Z" id="ご予約はこちら" fill="#FFFFFF" fill-rule="nonzero"></path>
    </g>
</svg>