<?xml version="1.0" encoding="UTF-8"?>
<svg width="400px" height="50px" viewBox="0 0 400 50" version="1.1" xmlns="http://www.w3.org/2000/svg" xmlns:xlink="http://www.w3.org/1999/xlink">
    <!-- Generator: Sketch 58 (84663) - https://sketch.com -->
    <title>Rectangle</title>
    <desc>Created with Sketch.</desc>
    <g id="Page-1" stroke="none" stroke-width="1" fill="none" fill-rule="evenodd">
        <rect id="Rectangle" fill="#000000" x="0" y="0" width="400" height="50"></rect>
        <g id="Group-3" transform="translate(93.000000, 7.000000)" fill="#FFFFFF">
            <path d="M61,11.15625 C62.0347648,12.8526786 63.5419223,13.6116071 65.8364008,13.6116071 L66.0674683,13.6101786 C66.1927198,13.6080357 66.3357873,13.6026786 66.5112474,13.5892857 L63.820509,15.2849132 C63.5241263,15.4746032 63.3184731,15.609375 63.1370143,15.7321429 L63.2719836,16 L63.9877324,15.7166031 C66.5374915,14.7220982 68.2902181,14.2105655 70.0429448,13.9241071 L70.7086693,13.8238483 C71.1245045,13.7575231 71.1876846,13.7306548 71.4151329,13.6339286 C71.8200409,13.5 72,13.2544643 72,12.8973214 C72,12.0714286 70.8302658,11.0892857 69.8404908,11.0892857 C69.6830266,11.0892857 69.5030675,11.1116071 69.3456033,11.1785714 L68.9258694,11.3329012 C68.2966883,11.5577411 67.9756984,11.6322136 67.3076095,11.729038 L67.0961145,11.7589286 C66.3312883,11.8705357 65.2740286,11.9598214 64.599182,11.9598214 C63.0245399,11.9598214 62.1472393,11.7142857 61.1799591,11 L61,11.15625 Z M60.5880452,19 C60.180937,20.0823529 60,20.9529412 60,21.8235294 C60,23.4941176 60.7463651,24.9294118 62.0355412,25.8 C63.2342488,26.6 65.1340872,27 67.7576737,27 L68.359475,26.9951389 C70.532198,26.9596405 72.316909,26.7313725 73.2084006,26.3647059 C73.7059774,26.1529412 74,25.7529412 74,25.3058824 C74,24.4588235 72.7786753,23.4705882 71.7156704,23.4705882 C71.5271944,23.4705882 71.3073057,23.5196078 71.0429157,23.6176471 L70.8788368,23.6823529 C69.4765751,24.2705882 68.187399,24.4823529 66.2875606,24.4823529 C62.4426494,24.4823529 60.7915994,23.2117647 60.7915994,20.2705882 L60.7951982,20.0540789 C60.8038852,19.800581 60.8292946,19.5281046 60.8820679,19.0705882 L60.5880452,19 Z M75,7.39751553 C76.1147541,8.26708075 76.8797814,9.11180124 77.6229508,10.3291925 L77.7735276,10.5600414 C78.0042502,10.8964803 78.143898,11 78.3442623,11 C78.7377049,11 79,10.6024845 79,10.0062112 C79,9.31055901 78.6065574,8.73913043 77.7322404,8.0931677 C77.0983607,7.62111801 76.2896175,7.27329193 75.1748634,7 L75,7.39751553 Z M72,9.37988827 C73.0710383,10.2067039 73.9234973,11.1899441 74.579235,12.3519553 C74.863388,12.8659218 75.0382514,13 75.3224044,13 C75.7377049,13 76,12.6424581 76,12.1284916 C76,11.4134078 75.5409836,10.7653631 74.5355191,10.0726257 C73.9016393,9.62569832 73.2240437,9.33519553 72.1967213,9 L72,9.37988827 Z M84.5461538,9.44432314 C83.5769231,9.44432314 83,9.39847162 82.1461538,9.23799127 L82.3076923,10.0862445 C83.0692308,9.97161572 83.7384615,9.92576419 84.6615385,9.92576419 L93.8,9.92576419 C92.8076923,11.3471616 92.1153846,12.1954148 91.1923077,13.1812227 C89.7384615,12.3558952 88.2615385,11.7827511 86.1153846,11.209607 L85.9307692,11.4159389 C87.7334842,12.7537246 88.9229438,13.9493548 89.8454571,15.3468698 L90.2122596,15.9158365 C90.3701923,16.1544078 90.4307692,16.2188865 90.5692308,16.3220524 L82.4461538,16.3220524 C81.5461538,16.3220524 80.9,16.2532751 80,16.0927948 L80.1615385,16.9639738 C80.7846154,16.8722707 81.6615385,16.8034934 82.4,16.8034934 L88.8384615,16.8034934 L88.8384615,25.6069869 C88.8384615,25.9279476 88.7461538,26.0196507 88.4,26.0425764 L87.27383,26.012548 C86.0097805,25.9723385 85.1582996,25.917088 83.3,25.790393 L83.2769231,26.1342795 L84.7308023,26.4689661 C85.9098828,26.7482884 86.342458,26.8866664 86.7295502,27.1104401 L86.7846154,27.1430131 C87.3384615,27.4639738 87.6384615,27.9224891 87.7076923,28.610262 C87.7538462,28.9541485 87.8,29 88.0538462,29 C88.3769231,29 88.9769231,28.9082969 89.5076923,28.7707424 C91.0769231,28.3580786 91.5846154,27.7849345 91.5846154,26.2947598 L91.5639385,26.1223581 L91.5639385,26.1223581 L91.5169392,21.0419215 C91.5159308,20.8404628 91.5153846,20.6708935 91.5153846,20.540393 L91.5153846,16.8034934 L96.6384615,16.8034934 C95.6230769,18.5 94.7461538,19.6921397 93.4769231,21.0906114 L93.6846154,21.3427948 C95.8076923,20.2652838 97.3538462,19.279476 99.4769231,17.6975983 L99.9520971,17.6821749 C100.749904,17.6425191 101,17.5382642 101,17.2849345 C101,17.1703057 100.884615,17.0327511 100.653846,16.8034934 L100.054763,16.3022514 C99.4058085,15.7651669 98.993956,15.4525109 98.0692308,14.7860262 L97.4496615,15.4059389 C97.1904615,15.6700437 96.9661538,15.9093886 96.5923077,16.3220524 L91.6076923,16.3220524 C92.1846154,15.9323144 92.4615385,15.4279476 92.4615385,14.7860262 C92.4615385,14.3045852 92.3,14.029476 91.8384615,13.6168122 C93.8,12.6997817 95.1846154,11.9203057 96.8692308,10.7740175 L97.6307692,10.7740175 C98.0461538,10.7740175 98.3230769,10.6593886 98.3230769,10.4759825 C98.3230769,10.3384279 98.2076923,10.2008734 97.9538462,9.97161572 L97.5297152,9.62418679 C96.7538462,8.9937617 96.3582418,8.70742358 95.3692308,8 L94.7315692,8.5909345 C94.4673846,8.83908297 94.2430769,9.05917031 93.8692308,9.44432314 L84.5461538,9.44432314 Z M106.795722,18.8964401 L106.795722,21.2297735 L106.502193,21.1365408 C105.886745,20.946753 105.370267,20.825027 104.280214,20.5501618 L104.280214,21.0485437 C104.280214,22.8834951 103.741176,25.828479 103,27.9579288 L103.224599,28.0938511 C104.572193,26.3721683 105.335829,24.8996764 106.368984,21.9546926 L106.70175,21.8865502 C106.729241,21.8803883 106.759786,21.8731392 106.795722,21.8640777 L106.792628,23.3009648 C106.781079,23.9058457 106.73719,25.6637246 106.660963,28.5469256 C106.660963,28.9093851 106.818182,29 107.447059,29 C108.300535,29 108.749733,28.9093851 108.884492,28.7055016 C108.929412,28.6375405 108.951872,28.5469256 108.951872,28.3430421 L108.910812,24.0901598 C108.908356,23.6961974 108.906952,23.3535599 108.906952,23.0873786 L108.906952,18.3074434 L109.152116,18.2436812 C109.342563,18.1906089 109.54082,18.122438 110.254545,17.8770227 L110.353535,18.3099604 C110.411765,18.5767709 110.456684,18.8133765 110.501604,19.1003236 C110.613904,19.7572816 110.771123,20.0064725 111.063102,20.0064725 C111.759358,20.0064725 112.478075,19.1909385 112.478075,18.3754045 C112.478075,17.9223301 112.343316,17.6504854 111.871658,17.1294498 C113.241711,15.8608414 113.893048,15.0226537 115.083422,13.0064725 L120.743316,13.0064725 C120.765775,13.3236246 120.765775,13.5501618 120.765775,13.7087379 C120.765775,17.4466019 120.406417,22.0453074 119.934759,24.2427184 L119.861548,24.5735396 C119.588266,25.7569657 119.384941,25.987055 118.744385,25.987055 L118.111793,25.9782988 C117.364258,25.9561979 116.423046,25.8854787 114.162567,25.6925566 L114.140107,25.987055 L115.404881,26.3685049 C116.463357,26.6962162 116.769463,26.8283674 117.127273,27.0517799 C117.62139,27.4142395 117.890909,27.8673139 117.913369,28.4789644 C117.935829,28.7961165 118.003209,28.8867314 118.250267,28.8867314 C118.362567,28.8867314 118.537255,28.8709996 118.748336,28.8395361 L118.879144,28.8187702 C119.86738,28.6828479 120.518717,28.4110032 121.035294,27.9579288 C121.726368,27.3698033 122.064429,26.5512868 122.428846,24.5155646 L122.533005,23.9086032 C122.88678,21.7760891 122.980786,20.4064279 123.236364,13.618123 C123.797861,13.3462783 124,13.1650485 124,12.9838188 C124,12.8705502 123.93262,12.7572816 123.730481,12.5760518 L123.210394,12.1711165 C122.757687,11.8228155 122.450267,11.6019417 121.776471,11.1262136 L120.942959,12.0306844 C120.815686,12.1708019 120.675936,12.3268608 120.496257,12.5307443 L115.352941,12.5307443 L115.651029,11.9604142 C116.020449,11.2412945 116.300749,10.6323625 116.767914,9.47249191 C117.419251,9.40453074 117.73369,9.26860841 117.73369,9.01941748 C117.73369,8.8027297 117.394032,8.6545598 116.345522,8.44085107 L115.580056,8.29141748 C115.216385,8.21747573 114.706096,8.10873786 114.095187,8 C114.005348,9.58576052 113.668449,11.2847896 113.084492,13.210356 L112.919547,13.7315594 C112.571508,14.8000431 112.263957,15.5225458 111.602139,16.8576052 C110.838503,16.1326861 110.344385,15.7702265 109.28877,15.0906149 L109.109091,15.2718447 L109.332484,15.6238074 C109.69863,16.2119071 109.843357,16.5230271 110.052406,17.1747573 L109.571981,17.2255788 C108.790353,17.2985563 107.64639,17.3687298 106.368984,17.4239482 C108.480214,15.7475728 109.603209,14.6375405 111.42246,12.4401294 C112.186096,12.394822 112.433155,12.3042071 112.433155,12.0550162 C112.433155,11.8737864 112.096257,11.6925566 111.018182,11.2847896 L110.466451,11.0652754 C110.195484,10.9586879 109.875223,10.8342323 109.513369,10.6957929 C109.157005,11.6683927 108.526731,12.8975333 107.622545,14.3647964 L107.424599,14.6828479 C106.818182,15.6569579 106.368984,16.2686084 105.448128,17.4692557 L105.208556,17.4851972 C105.068806,17.4919094 104.968984,17.4919094 104.909091,17.4919094 L104.320308,17.4897308 C104.020162,17.4859183 103.747302,17.475434 103.247059,17.4466019 L103.636441,19.1209102 C103.893982,20.19682 103.942708,20.2330097 104.122995,20.2330097 C104.302674,20.2330097 104.414973,20.0291262 104.504813,19.5080906 L105.509158,19.256173 C105.833193,19.171205 106.126136,19.0875809 106.795722,18.8964401 Z M103,11.6083086 C104.054118,12.7924594 104.446828,13.4298769 104.858992,14.6486624 L105.036659,15.187887 C105.270681,15.8706273 105.397843,16 105.706667,16 C106.383333,16 107.013333,15.1691395 107.013333,14.2670623 C107.013333,13.5548961 106.78,13.2225519 105.73,12.5816024 L105.89929,12.4587588 C106.378555,12.0876819 107.3428,11.1952522 108.903333,9.73293769 L109.184928,9.70488687 C109.785625,9.63575668 110,9.53709199 110,9.32937685 C110,9.02077151 109.416667,8.80712166 106.406667,8 C106.22,9.30563798 105.87,10.4925816 105.123333,12.2492582 L104.799907,12.0871524 C104.297593,11.840422 103.941111,11.6953511 103.163333,11.4183976 L103,11.6083086 Z M109,20.1578947 C109.625899,21.4210526 109.906475,22.6390977 110.057554,24.4661654 L110.103602,25.1770913 C110.128759,25.5217545 110.142749,25.560744 110.18705,25.6842105 C110.273381,25.887218 110.402878,26 110.597122,26 C111.244604,26 112,24.8721805 112,23.924812 C112,23.2255639 111.611511,22.3458647 110.964029,21.6240602 C110.467626,21.0601504 110.079137,20.7218045 109.129496,20 L109,20.1578947 Z M114.170213,16 L114,16.1696113 L114.252466,16.596112 C114.717325,17.3975626 114.954407,17.9141848 115.191489,18.5865724 C115.425532,19.2862191 115.702128,20.409894 115.808511,21.1095406 C115.893617,21.745583 116.06383,22 116.404255,22 C117.191489,22 118,20.9611307 118,19.9434629 C118,18.7773852 116.87234,17.6113074 114.170213,16 Z M133,17.7652174 L132.730392,17.6981366 L132.068627,18.9108705 C131.918567,19.1890698 131.781012,19.4481194 131.616884,19.7623771 L130.834718,21.2830697 C130.564913,21.8014169 130.394301,22.1031056 130.107843,22.5950311 C129.911765,21.9242236 129.838235,21.2981366 129.838235,20.4484472 C129.838235,18.8832298 130.254902,16.9602484 130.892157,15.5291925 C131.096405,15.0819876 131.351716,14.6192547 131.658088,14.1151139 L131.848039,13.8074534 C132.215686,13.226087 132.289216,13.0248447 132.289216,12.6447205 C132.289216,12.0186335 131.79902,11.1465839 130.965686,10.2968944 C130.205882,9.51428571 129.593137,9.15652174 128.784314,9 C129.330532,9.83052351 129.517482,10.3525669 129.541402,11.0316046 L129.544118,11.1913043 C129.544118,11.6832298 129.470588,12.152795 129.127451,13.5391304 L128.881471,14.6044174 C128.198529,17.6234534 128,19.1247205 128,21.0968944 C128,22.952795 128.343137,24.7863354 128.857843,25.8372671 C129.25,26.6198758 129.740196,27 130.328431,27 C131.014706,27 131.504902,26.5080745 131.504902,25.8372671 C131.504902,25.6807453 131.480392,25.4571429 131.455882,25.2335404 L131.412293,24.6575847 C131.408864,24.5996958 131.406863,24.5467613 131.406863,24.4956522 C131.406863,23.838967 131.670835,22.4397481 132.115421,20.8683628 L133,17.7652174 Z M134,13.8443878 C134.389313,14.4413265 134.870229,14.9693878 135.442748,15.3826531 C136.152672,15.9107143 137.022901,16.1632653 138.19084,16.1632653 C138.648855,16.1632653 139.152672,16.1173469 139.793893,16.0255102 L139.831519,17.5626748 C139.861835,19.1317263 139.885496,21.0851403 139.885496,21.2831633 L139.237064,21.2480886 C139.098458,21.2414619 138.969466,21.2372449 138.832061,21.2372449 C136.061069,21.2372449 134.183206,22.4770408 134.183206,24.2908163 C134.183206,25.9209184 135.694656,27 137.961832,27 C140.429053,27 141.925467,25.9834603 142.011357,24.3072512 L142.015267,24.1530612 C142.015267,24.0841837 142.015267,23.9923469 141.992366,23.8545918 C142.593511,24.1760204 143.142056,24.5853396 143.622659,25.0517877 L144.336377,25.7655273 C144.825871,26.2460794 144.914703,26.2882653 145.129771,26.2882653 C145.610687,26.2882653 145.931298,25.7372449 145.931298,24.9107143 C145.931298,24.1858601 145.654853,23.5995809 145.083627,23.1334944 L144.946565,23.0280612 C144.21374,22.4540816 143.29771,22.0408163 141.946565,21.6505102 C141.740458,20.0663265 141.625954,18.4821429 141.625954,16.622449 L141.625954,15.75 L142.161914,15.6297109 C144.752087,15.0293866 146,14.4441964 146,13.7984694 C146,13.5918367 145.908397,13.3622449 145.770992,13.2244898 C145.450382,12.9030612 144.80916,12.6734694 144.328244,12.6734694 C144.151581,12.6734694 144.042218,12.7072053 143.870363,12.8325103 L143.778626,12.9030612 C143.091603,13.4311224 142.770992,13.5918367 141.740458,13.9132653 L141.778155,13.4667423 C141.865894,12.5037793 141.958251,12.0639645 142.184525,11.5315571 L142.290076,11.2959184 C142.473282,10.8826531 142.519084,10.744898 142.519084,10.5153061 C142.519084,10.1338305 142.265414,9.81104335 141.758074,9.56500283 L141.625954,9.50510204 C140.89313,9.16071429 140.068702,9 139.198473,9 C138.465649,9 138.122137,9.11479592 137.687023,9.48214286 C138.61021,9.5682398 139.211355,9.85612643 139.471588,10.3836383 L139.519084,10.4923469 C139.70229,10.9285714 139.748092,11.5943878 139.770992,14.4642857 C138.900763,14.6709184 138.007634,14.7857143 137.114504,14.7857143 C135.923664,14.7857143 135.19084,14.5102041 134.183206,13.6836735 L134,13.8443878 Z M139.976526,23.3277311 C140,23.3277311 140,23.3529412 140,23.3781513 L139.993045,23.6199813 C139.984351,23.8123249 139.968701,24.0420168 139.953052,24.1596639 C139.891432,24.5567227 139.775895,24.8958771 139.574989,25.1433495 L139.483568,25.2436975 C139.084507,25.7226891 138.215962,26 137.253521,26 C135.892019,26 135,25.4453782 135,24.6386555 C135,23.6302521 136.103286,23 137.86385,23 C138.732394,23 139.366197,23.1008403 139.976526,23.3277311 Z M154,10.1345291 C154.584867,11.0762332 155.079755,11.5695067 155.93456,11.9955157 C156.699387,12.3766816 157.756646,12.6008969 158.836401,12.6008969 L159.511247,12.6008969 L158.340796,13.3255019 C157.378052,13.9275037 156.575665,14.4456901 156.137014,14.7533632 L156.271984,15 L157.246816,14.6272496 C159.920408,13.617677 161.409351,13.1761249 163.042945,12.9147982 L163.877435,12.7870739 C164.147833,12.740893 164.222677,12.7142501 164.415133,12.6457399 C164.797546,12.4887892 165,12.2421525 165,11.9058296 C165,11.0762332 163.830266,10.0672646 162.840491,10.0672646 C162.728016,10.0672646 162.458078,10.1121076 162.345603,10.1569507 L161.646595,10.40857 C161.298341,10.5281515 161.123381,10.568012 160.748466,10.6278027 C159.736196,10.8295964 158.498978,10.941704 157.644172,10.941704 C156.02454,10.941704 155.169734,10.6950673 154.179959,10 L154,10.1345291 Z M153.588045,19 C153.180937,20.0823529 153,20.9529412 153,21.8470588 C153,23.5176471 153.723748,24.9294118 155.035541,25.8 C156.234249,26.6 158.11147,27 160.780291,27 L161.376896,26.9951389 C163.532198,26.9596405 165.316909,26.7313725 166.208401,26.3647059 C166.705977,26.1529412 167,25.7764706 167,25.3294118 C167,24.4588235 165.801292,23.4941176 164.693053,23.4941176 C164.444265,23.4941176 164.263328,23.5411765 163.878837,23.7058824 C162.431341,24.2705882 161.210016,24.4823529 159.287561,24.4823529 C155.50232,24.4823529 153.861908,23.2877959 153.793817,20.4354373 L153.791599,20.2470588 C153.791599,19.9411765 153.814216,19.6588235 153.882068,19.0941176 L153.588045,19 Z M173,12.416185 C174.014589,14.3583815 175.187003,15.1445087 177.125995,15.1445087 L177.434687,15.1388638 C177.518443,15.1354769 177.622016,15.1300578 177.757294,15.1213873 L177.633433,15.6839961 C177.199783,17.7176707 176.584881,21.1897005 176.584881,21.7572254 C176.584881,22.7976879 177.622016,24.0462428 178.456233,24.0462428 C178.771883,24.0462428 179.11008,23.8612717 179.222812,23.6069364 C179.538462,22.982659 179.718833,22.7283237 180.350133,22.0115607 C181.657825,20.5317919 183.416446,19.6300578 184.927056,19.6300578 C186.437666,19.6300578 187.339523,20.5086705 187.339523,21.9653179 C187.339523,23.3988439 186.550398,24.6936416 185.062334,25.6647399 C183.64191,26.5895954 181.680371,27.2601156 178.929708,27.7225434 L178.929708,27.9768786 L179.220774,27.9915738 C179.446895,28 179.628647,28 179.741379,28 C180.891247,28 182.153846,27.9075145 183.236074,27.7687861 C185.242706,27.4913295 186.482759,27.0982659 187.655172,26.4046243 C189.098143,25.5260116 190,24.0462428 190,22.5202312 C190,20.2312139 188.083554,18.6820809 185.265252,18.6820809 C184.281408,18.6820809 183.241664,18.8540582 182.095202,19.2327556 L181.748011,19.3526012 C180.823607,19.6763006 180.30504,19.9075145 178.749337,20.716763 C178.749337,19.0982659 179.04244,16.9710983 179.538462,15.0751445 C181.612732,14.7514451 183.529178,14.265896 184.859416,13.6647399 C185.828912,13.2485549 186.279841,12.8323699 186.279841,12.3930636 C186.279841,12.1156069 186.144562,11.8612717 185.896552,11.699422 C185.603448,11.5144509 184.949602,11.3294798 184.543767,11.3294798 C184.115385,11.3294798 183.95756,11.3757225 183.619363,11.6763006 C182.785146,12.3930636 181.680371,12.8786127 180.124668,13.2254335 L180.307701,12.7492638 C180.717346,11.7054929 181.012758,11.1173917 181.35764,10.6621174 L181.595204,10.357508 C181.851004,10.0178541 181.883289,9.89595376 181.883289,9.6416185 C181.883289,8.73988439 180.327586,8 178.388594,8 C177.644562,8 177.328912,8.09248555 176.855438,8.50867052 C178.16313,8.55491329 178.704244,8.99421965 178.704244,9.91907514 L178.702091,10.0416842 C178.683078,10.5912469 178.533535,11.4071016 178.072944,13.6184971 L177.691806,13.6728002 C177.170715,13.7417475 176.855438,13.7572254 176.449602,13.7572254 C175.051724,13.7572254 174.285146,13.4104046 173.248011,12.2774566 L173,12.416185 Z M202.227345,8.11210762 L202.449921,8 C203.09539,8.89686099 203.718601,9.367713 204.809221,9.74887892 C205.400636,9.96028187 205.975698,10.105793 206.576458,10.1712926 L206.879173,10.1973094 C207.702703,10.264574 208.014308,10.4215247 208.459459,10.9147982 C208.860095,11.3408072 209.082671,11.8565022 209.082671,12.3049327 C209.082671,12.8430493 208.704293,13.1793722 208.125596,13.1793722 L208.009332,13.1745742 C207.864001,13.1616564 207.640876,13.1170902 206.879173,12.9775785 L206.720588,12.9611127 C206.536963,12.9453475 206.278219,12.9327354 205.944356,12.9327354 C204.564388,12.9327354 202.984102,13.1569507 201.759936,13.5156951 C201.158983,13.6950673 200.802862,14.0089686 200.802862,14.3452915 C200.802862,14.5919283 200.891892,14.838565 201.248013,15.5112108 C201.337043,15.690583 201.403816,16.0493274 201.403816,16.4080717 L201.396396,16.6181697 C201.386504,16.7942202 201.36672,17.0433483 201.337043,17.3721973 L201.216209,19.1926049 C201.171535,19.9320856 201.14161,20.5323878 201.137271,20.8079401 L201.136725,21.0717489 L201.136725,21.0717489 C203.941176,19.1883408 206.166932,18.3363229 208.192369,18.3363229 C211.063593,18.3363229 213,19.9282511 213,22.3049327 C213,23.7847534 212.287758,25.0403587 210.974563,25.9820628 C209.038156,27.3273543 206.300477,27.9775785 202.472178,28 L202.405405,27.7309417 C205.054054,27.2376682 206.701113,26.5874439 208.192369,25.4887892 C209.661367,24.4125561 210.329094,23.2466368 210.329094,21.8116592 C210.329094,20.2421525 209.372019,19.2780269 207.81399,19.2780269 C206.500795,19.2780269 205.165342,19.8834081 203.874404,21.0717489 C203.18071,21.7088939 202.543124,22.4967613 202.184517,23.1244862 L201.908783,23.6400495 C201.838749,23.7648755 201.792796,23.8284509 201.727579,23.8889941 L201.693164,23.9192825 C201.515103,24.0986547 201.292528,24.1883408 201.069952,24.1883408 C200.535771,24.1883408 199.957075,23.7847534 199.511924,23.1121076 C199.200318,22.6188341 199,22.103139 199,21.7668161 L199.001424,21.684843 C199.007122,21.5829596 199.035612,21.4753363 199.17806,20.9372197 L199.267091,20.4215247 C199.306041,20.1804933 199.356121,19.8609865 199.422893,19.4349776 L199.545755,18.5201794 C199.601844,18.1165919 199.649921,17.793722 199.689984,17.5515695 L199.838768,16.5839854 C199.945075,15.8680134 199.994347,15.4569924 200.000843,15.2431953 L200.00159,15.1973094 C200.00159,15.1524664 200.00159,15.0627803 199.979332,14.9506726 L199.979332,14.7264574 L199.979332,14.7264574 C199.979332,13.9192825 200.246423,13.5156951 201.025437,13.0896861 L201.168553,13.016704 C201.609253,12.7997758 202.176153,12.5919283 203.518283,12.1479821 L205.076312,11.6098655 L205.076312,11.6098655 C203.518283,10.7578475 202.739269,9.8161435 202.227345,8.11210762 Z" id="ご予約はこちら" fill-rule="nonzero"></path>
            <g id="Group-5-Copy-2" transform="translate(-0.000000, 0.000000)">
                <path d="M36.6198822,20.3272441 L32.2654415,1.90878896 C32.0290369,0.907579955 31.1412064,0.208302128 30.1075932,0.208302128 L28.4218973,0.208302128 L13.0523172,0.208302128 L12.8040924,0.208302128 C11.711378,0.208302128 10.8202642,0.986657167 10.6843315,2.05910101 L8.35640325,20.4769026 C8.27628837,21.112788 8.48051565,21.7597834 8.91786409,22.253199 C9.36046597,22.7518429 9.98956478,23.0380894 10.6449308,23.0380894 L13.5487668,23.0380894 L12.8546568,20.1599402 L11.3114603,20.1599402 L12.5860749,10.0726942 L15.2495663,21.3376025 C15.4866276,22.3388115 16.3738014,23.0380894 17.4074146,23.0380894 L34.4626906,23.0380894 C35.143667,23.0380894 35.7767059,22.7335441 36.1996074,22.2022236 C36.6231656,21.6702496 36.7761719,20.9873101 36.6198822,20.3272441 L36.6198822,20.3272441 Z M17.9419516,20.1599402 L13.9053437,3.08645124 L28.4218973,3.08645124 L29.5730562,3.08645124 L33.6096641,20.1599402 L17.9419516,20.1599402 Z" id="Fill-2"></path>
                <path d="M22.8669571,13.6294684 C22.8663019,13.6301268 22.8663019,13.6314436 22.8656467,13.632102 C22.8643363,13.632102 22.8617155,13.6327604 22.860405,13.6327604 L22.8584394,13.6307852 L20.3260552,10.5724896 L18.5733702,12.0822144 L21.1057544,15.14051 C21.5512967,15.662626 22.1868498,15.952983 22.8564738,15.952983 C22.9744115,15.952983 23.0930044,15.9437653 23.2122525,15.9253299 C24.0076766,15.8035248 24.6714037,15.2866762 24.988525,14.5433358 L28.0201787,7.42004192 L25.8986108,6.50617447 L22.8669571,13.6294684 Z" id="Fill-4"></path>
                <path d="M3.56424833,30.62667 C4.42888688,30.62667 5.0483391,30.5137739 5.0483391,29.6976421 C5.0483391,28.869527 4.42888688,28.7068052 3.56424833,28.7068052 L2.60880004,28.7068052 L2.60880004,30.62667 L3.56424833,30.62667 Z M5.20336431,35.633834 L3.71927355,32.3585849 L2.60880004,32.3585849 L2.60880004,35.633834 L0.466987234,35.633834 L0.466987234,26.9742596 L3.82240748,26.9742596 C5.87470782,26.9742596 7.19080054,27.8906734 7.19080054,29.6976421 C7.19080054,30.8272341 6.67448225,31.5929095 5.77092524,31.9940377 L7.55209362,35.633834 L5.20336431,35.633834 Z" id="Fill-6"></path>
                <path d="M10.3205993,32.0334519 L11.8818809,32.0334519 C11.8423214,31.2842632 11.5667235,31.0521106 11.1078333,31.0521106 C10.5961971,31.0521106 10.3733453,31.4198568 10.3205993,32.0334519 L10.3205993,32.0334519 Z M13.744474,35.2493479 C13.2855838,36.0807145 12.4983497,36.4210681 11.3043122,36.4210681 C9.2320537,36.4210681 8.33932766,35.0308916 8.33932766,33.3414505 L8.33932766,32.3881866 C8.33932766,30.2755293 9.38897305,29.3359617 11.0946468,29.3359617 C12.9967994,29.3359617 13.849966,30.4665929 13.849966,32.5922618 L13.849966,33.3962358 L10.3067534,33.3962358 C10.3337858,34.1728171 10.5170781,34.7042344 11.3174987,34.7042344 C11.9339675,34.7042344 12.0651732,34.5131707 12.3012115,34.2002098 L13.744474,35.2493479 Z" id="Fill-8"></path>
                <path d="M18.5735618,31.5566054 C18.3194516,31.2566849 18.0532728,31.0800195 17.4397877,31.0800195 C17.1595289,31.0800195 16.8122226,31.1341147 16.8122226,31.4340351 C16.8122226,31.6654806 17.0254338,31.7743558 17.6389189,31.896926 C19.4666352,32.2516264 20.1478383,33.0007427 20.1478383,34.2538349 C20.1478383,35.616487 19.2004564,36.4210681 17.4793457,36.4210681 C16.1189509,36.4210681 15.2379461,36.1211477 14.6372,35.2898614 L16.1846575,34.1449597 C16.4119487,34.4585751 16.6794684,34.6770103 17.4397877,34.6770103 C17.8796196,34.6770103 18.1457984,34.5537553 18.1457984,34.3086149 C18.1457984,34.0497795 17.9191777,33.9545992 17.2929535,33.818334 C15.7850541,33.4780134 14.8115236,32.8507825 14.8115236,31.5155204 C14.8115236,30.1528682 15.7716446,29.3359617 17.4793457,29.3359617 C18.5735618,29.3359617 19.5343532,29.5947971 20.0533012,30.4664837 L18.5735618,31.5566054 Z" id="Fill-10"></path>
                <path d="M22.9163439,32.0334519 L24.4776255,32.0334519 C24.438066,31.2842632 24.1624682,31.0521106 23.703578,31.0521106 C23.1919418,31.0521106 22.9690899,31.4198568 22.9163439,32.0334519 L22.9163439,32.0334519 Z M26.3402186,35.2493479 C25.8813284,36.0807145 25.0940944,36.4210681 23.9000568,36.4210681 C21.8277984,36.4210681 20.9350723,35.0308916 20.9350723,33.3414505 L20.9350723,32.3881866 C20.9350723,30.2755293 21.9847177,29.3359617 23.6903915,29.3359617 C25.5925441,29.3359617 26.4457106,30.4665929 26.4457106,32.5922618 L26.4457106,33.3962358 L22.9031574,33.3962358 C22.9295304,34.1728171 23.1128228,34.7042344 23.9132433,34.7042344 C24.5297122,34.7042344 24.6609179,34.5131707 24.8969562,34.2002098 L26.3402186,35.2493479 Z" id="Fill-12"></path>
                <path d="M30.5710242,31.3609871 C30.4597756,31.1760476 30.2869984,30.9166358 29.9283926,30.9166358 C29.3963881,30.9166358 29.0868809,31.2871354 29.0868809,32.1143983 L29.0868809,35.633834 L27.2329447,35.633834 L27.2329447,29.4594616 L29.0377823,29.4594616 L29.0377823,29.9286369 C29.223611,29.6940492 29.6313153,29.3359617 30.336097,29.3359617 C31.0415001,29.3359617 31.5977431,29.6816372 31.9563489,30.3729882 L30.5710242,31.3609871 Z" id="Fill-14"></path>
                <polygon id="Fill-16" points="38.2542213 29.3359617 35.9876522 35.633834 34.2721778 35.633834 31.9563489 29.3359617 33.9790817 29.3359617 35.1059009 32.9631412 36.2333358 29.3359617"></polygon>
                <path d="M41.022964,32.0334519 L42.583773,32.0334519 C42.5448682,31.2842632 42.2692374,31.0521106 41.8096328,31.0521106 C41.297276,31.0521106 41.0750569,31.4198568 41.022964,32.0334519 L41.022964,32.0334519 Z M44.446589,35.2493479 C43.9876439,36.0807145 43.200975,36.4210681 42.0061352,36.4210681 C39.9336288,36.4210681 39.0414553,35.0308916 39.0414553,33.3414505 L39.0414553,32.3881866 C39.0414553,30.2755293 40.0905669,29.3359617 41.7971042,29.3359617 C43.6994844,29.3359617 44.5520936,30.4665929 44.5520936,32.5922618 L44.5520936,33.3962358 L41.0091165,33.3962358 C41.0361521,34.1728171 41.2194664,34.7042344 42.0199827,34.7042344 C42.6358659,34.7042344 42.7677467,34.5131707 43.0038133,34.2002098 L44.446589,35.2493479 Z" id="Fill-18"></path>
            </g>
        </g>
    </g>
</svg>