<?xml version="1.0" encoding="UTF-8"?>
<svg width="125px" height="125px" viewBox="0 0 125 125" version="1.1" xmlns="http://www.w3.org/2000/svg" xmlns:xlink="http://www.w3.org/1999/xlink">
    <!-- Generator: Sketch 58 (84663) - https://sketch.com -->
    <title>Group 2</title>
    <desc>Created with Sketch.</desc>
    <g id="Page-1" stroke="none" stroke-width="1" fill="none" fill-rule="evenodd">
        <g id="Group-2" fill="#FFFFFF">
            <path d="M62.3166412,112.713088 C34.5025954,112.713088 11.9540458,90.1641176 11.9540458,62.33625 C11.9540458,34.5083824 34.5025954,11.9534559 62.3166412,11.9534559 C90.1366412,11.9534559 112.685191,34.5083824 112.685191,62.33625 C112.685191,90.1641176 90.1366412,112.713088 62.3166412,112.713088 M62.3166412,0 C27.901374,0 0,27.9072794 0,62.33625 C0,96.7652206 27.901374,124.6725 62.3166412,124.6725 C96.7358779,124.6725 124.635267,96.7652206 124.635267,62.33625 C124.635267,27.9072794 96.7358779,0 62.3166412,0" id="Fill-1"></path>
            <polygon id="Fill-3" points="48.7938626 47.7606176 45.6937099 47.7606176 45.6937099 28.0049559 38.3859237 28.0049559 38.3859237 47.7606176 35.2877557 47.7606176 35.2877557 28.0049559 27.1821069 28.0049559 27.1821069 54.8024559 38.3859237 54.8024559 38.3859237 59.0271618 27.1821069 59.0271618 27.1821069 96.7695882 35.2877557 96.7695882 35.2877557 67.1946618 38.3859237 67.1946618 38.3859237 96.7695882 45.6937099 96.7695882 45.6937099 67.1946618 48.7938626 67.1946618 48.7938626 96.7695882 55.8218015 96.7695882 55.8218015 59.0271618 45.6937099 59.0271618 45.6937099 54.8024559 55.8218015 54.8024559 55.8218015 28.0049559 48.7938626 28.0049559"></polygon>
            <polygon id="Fill-5" points="58.9993588 96.6697279 66.0352366 96.6697279 66.0352366 36.7257574 88.5579847 36.7257574 88.5579847 96.6697279 97.455542 96.6697279 97.455542 28.0500221 58.9993588 28.0500221"></polygon>
            <polygon id="Fill-7" points="67.6811756 45.9476471 86.9291145 45.9476471 86.9291145 38.6397794 67.6811756 38.6397794"></polygon>
            <path d="M74.6674351,76.6859559 L79.9388855,76.6859559 L79.9388855,64.2361765 L74.6674351,64.2361765 L74.6674351,76.6859559 Z M79.9388855,58.0321324 L74.6674351,58.0321324 L74.6674351,47.6152941 L67.7030076,47.6152941 L67.7030076,96.7691912 L74.6674351,96.7691912 L74.6674351,82.8880147 L79.9388855,82.8880147 L79.9388855,96.7691912 L86.9052977,96.7691912 L86.9052977,47.6152941 L79.9388855,47.6152941 L79.9388855,58.0321324 Z" id="Fill-9"></path>
        </g>
    </g>
</svg>