<?xml version="1.0" encoding="UTF-8"?>
<svg width="68px" height="55px" viewBox="0 0 68 55" version="1.1" xmlns="http://www.w3.org/2000/svg" xmlns:xlink="http://www.w3.org/1999/xlink">
    <!-- Generator: Sketch 58 (84663) - https://sketch.com -->
    <title>Group 5 Copy</title>
    <desc>Created with Sketch.</desc>
    <g id="Page-1" stroke="none" stroke-width="1" fill="none" fill-rule="evenodd">
        <g id="Group-5-Copy" fill="#000000">
            <path d="M54.5513,30.785 L47.9203,2.602 C47.5603,1.07 46.2083,0 44.6343,0 L42.0673,0 L18.6623,0 L18.2843,0 C16.6203,0 15.2633,1.191 15.0563,2.832 L11.5113,31.014 C11.3893,31.987 11.7003,32.977 12.3663,33.732 C13.0403,34.495 13.9983,34.933 14.9963,34.933 L19.4183,34.933 L18.3613,30.529 L16.0113,30.529 L17.9523,15.094 L22.0083,32.331 C22.3693,33.863 23.7203,34.933 25.2943,34.933 L51.2663,34.933 C52.3033,34.933 53.2673,34.467 53.9113,33.654 C54.5563,32.84 54.7893,31.795 54.5513,30.785 L54.5513,30.785 Z M26.1083,30.529 L19.9613,4.404 L42.0673,4.404 L43.8203,4.404 L49.9673,30.529 L26.1083,30.529 Z" id="Fill-2"></path>
            <path d="M34.1187,20.5585 C34.1177,20.5595 34.1177,20.5615 34.1167,20.5625 C34.1147,20.5625 34.1107,20.5635 34.1087,20.5635 L34.1057,20.5605 L30.2407,15.9155 L27.5657,18.2085 L31.4307,22.8535 C32.1107,23.6465 33.0807,24.0875 34.1027,24.0875 C34.2827,24.0875 34.4637,24.0735 34.6457,24.0455 C35.8597,23.8605 36.8727,23.0755 37.3567,21.9465 L41.9837,11.1275 L38.7457,9.7395 L34.1187,20.5585 Z" id="Fill-4"></path>
            <path d="M4.775,46.8304 C6.108,46.8304 7.063,46.6514 7.063,45.3574 C7.063,44.0444 6.108,43.7864 4.775,43.7864 L3.302,43.7864 L3.302,46.8304 L4.775,46.8304 Z M7.302,54.7694 L5.014,49.5764 L3.302,49.5764 L3.302,54.7694 L0,54.7694 L0,41.0394 L5.173,41.0394 C8.337,41.0394 10.366,42.4924 10.366,45.3574 C10.366,47.1484 9.57,48.3624 8.177,48.9984 L10.923,54.7694 L7.302,54.7694 Z" id="Fill-6"></path>
            <path d="M14.8267,48.5614 L17.1947,48.5614 C17.1347,47.4674 16.7167,47.1284 16.0207,47.1284 C15.2447,47.1284 14.9067,47.6654 14.8267,48.5614 L14.8267,48.5614 Z M20.0197,53.2574 C19.3237,54.4714 18.1297,54.9684 16.3187,54.9684 C13.1757,54.9684 11.8217,52.9384 11.8217,50.4714 L11.8217,49.0794 C11.8217,45.9944 13.4137,44.6224 16.0007,44.6224 C18.8857,44.6224 20.1797,46.2734 20.1797,49.3774 L20.1797,50.5514 L14.8057,50.5514 C14.8467,51.6854 15.1247,52.4614 16.3387,52.4614 C17.2737,52.4614 17.4727,52.1824 17.8307,51.7254 L20.0197,53.2574 Z" id="Fill-8"></path>
            <path d="M27.1461,47.8651 C26.7671,47.4271 26.3701,47.1691 25.4551,47.1691 C25.0371,47.1691 24.5191,47.2481 24.5191,47.6861 C24.5191,48.0241 24.8371,48.1831 25.7521,48.3621 C28.4781,48.8801 29.4941,49.9741 29.4941,51.8041 C29.4941,53.7941 28.0811,54.9691 25.5141,54.9691 C23.4851,54.9691 22.1711,54.5311 21.2751,53.3171 L23.5831,51.6451 C23.9221,52.1031 24.3211,52.4221 25.4551,52.4221 C26.1111,52.4221 26.5081,52.2421 26.5081,51.8841 C26.5081,51.5061 26.1701,51.3671 25.2361,51.1681 C22.9871,50.6711 21.5351,49.7551 21.5351,47.8051 C21.5351,45.8151 22.9671,44.6221 25.5141,44.6221 C27.1461,44.6221 28.5791,45.0001 29.3531,46.2731 L27.1461,47.8651 Z" id="Fill-10"></path>
            <path d="M33.6949,48.5614 L36.0629,48.5614 C36.0029,47.4674 35.5849,47.1284 34.8889,47.1284 C34.1129,47.1284 33.7749,47.6654 33.6949,48.5614 L33.6949,48.5614 Z M38.8879,53.2574 C38.1919,54.4714 36.9979,54.9684 35.1869,54.9684 C32.0439,54.9684 30.6899,52.9384 30.6899,50.4714 L30.6899,49.0794 C30.6899,45.9944 32.2819,44.6224 34.8689,44.6224 C37.7539,44.6224 39.0479,46.2734 39.0479,49.3774 L39.0479,50.5514 L33.6749,50.5514 C33.7149,51.6854 33.9929,52.4614 35.2069,52.4614 C36.1419,52.4614 36.3409,52.1824 36.6989,51.7254 L38.8879,53.2574 Z" id="Fill-12"></path>
            <path d="M46.0132,47.8846 C45.8342,47.5866 45.5562,47.1686 44.9792,47.1686 C44.1232,47.1686 43.6252,47.7656 43.6252,49.0986 L43.6252,54.7696 L40.6422,54.7696 L40.6422,44.8206 L43.5462,44.8206 L43.5462,45.5766 C43.8452,45.1986 44.5012,44.6216 45.6352,44.6216 C46.7702,44.6216 47.6652,45.1786 48.2422,46.2926 L46.0132,47.8846 Z" id="Fill-14"></path>
            <polygon id="Fill-16" points="58.1734 44.8207 54.4924 54.7697 51.7064 54.7697 47.9454 44.8207 51.2304 44.8207 53.0604 50.5507 54.8914 44.8207"></polygon>
            <path d="M61.6793,48.5614 L64.0463,48.5614 C63.9873,47.4674 63.5693,47.1284 62.8723,47.1284 C62.0953,47.1284 61.7583,47.6654 61.6793,48.5614 L61.6793,48.5614 Z M66.8713,53.2574 C66.1753,54.4714 64.9823,54.9684 63.1703,54.9684 C60.0273,54.9684 58.6743,52.9384 58.6743,50.4714 L58.6743,49.0794 C58.6743,45.9944 60.2653,44.6224 62.8533,44.6224 C65.7383,44.6224 67.0313,46.2734 67.0313,49.3774 L67.0313,50.5514 L61.6583,50.5514 C61.6993,51.6854 61.9773,52.4614 63.1913,52.4614 C64.1253,52.4614 64.3253,52.1824 64.6833,51.7254 L66.8713,53.2574 Z" id="Fill-18"></path>
        </g>
    </g>
</svg>