<?xml version="1.0" encoding="UTF-8"?>
<svg width="30px" height="30px" viewBox="0 0 30 30" version="1.1" xmlns="http://www.w3.org/2000/svg" xmlns:xlink="http://www.w3.org/1999/xlink">
    <!-- Generator: Sketch 58 (84663) - https://sketch.com -->
    <title>Fill 1</title>
    <desc>Created with Sketch.</desc>
    <g id="Page-1" stroke="none" stroke-width="1" fill="none" fill-rule="evenodd">
        <path d="M7.5008,12.0834754 C8.58313,14.4248581 9.94271962,16.3448173 11.7576255,18.1259997 C13.6055991,19.9772071 15.5604066,21.371342 17.9311035,22.4930158 L18.6980189,22.4930158 L20.0944917,21.1307105 L21.9093976,19.697107 L22.5732945,19.697107 L29.5162316,22.9831911 L30.0008,23.5701282 C30.0008,26.3673102 29.7248122,27.0306383 28.4669692,28.1115703 C27.1061078,29.3007228 25.2237947,29.9997 22.9535726,29.9997 C19.7447376,29.9997 12.8374118,26.5442826 8.26898721,21.7227404 C3.45382696,17.1494687 0.0008,10.2666439 0.0008,7.05185804 C0.0008,4.78177359 0.697764558,2.89873663 1.88311304,1.53643132 C2.96544304,0.279800157 3.62933994,-0.0003 6.41847,-0.0003 L7.01114424,0.489875275 L10.2912019,7.44017872 L10.2912019,8.10350682 L8.86166145,9.92033829 L7.5008,11.3170195 L7.5008,12.0834754 Z" id="Fill-1" fill="#FFFFFF"></path>
    </g>
</svg>